<svg width="34" height="32" viewBox="0 0 34 32" fill="none" xmlns="http://www.w3.org/2000/svg">
<path d="M17.1252 3C14.4469 3 11.8287 3.76244 9.60182 5.1909C7.37491 6.61935 5.63924 8.64968 4.6143 11.0251C3.58936 13.4006 3.32119 16.0144 3.8437 18.5362C4.36621 21.0579 5.65593 23.3743 7.54976 25.1924C9.4436 27.0105 11.8565 28.2486 14.4833 28.7502C17.1101 29.2518 19.8329 28.9944 22.3073 28.0104C24.7818 27.0265 26.8967 25.3603 28.3847 23.2224C29.8726 21.0846 30.6668 18.5712 30.6668 16C30.663 12.5533 29.2351 9.24882 26.6964 6.81163C24.1577 4.37445 20.7155 3.00364 17.1252 3ZM10.1043 24.6875C10.8579 23.5561 11.896 22.625 13.123 21.9801C14.35 21.3351 15.7263 20.9971 17.1252 20.9971C18.524 20.9971 19.9004 21.3351 21.1274 21.9801C22.3543 22.625 23.3924 23.5561 24.146 24.6875C22.1386 26.1862 19.6682 26.9999 17.1252 26.9999C14.5822 26.9999 12.1117 26.1862 10.1043 24.6875ZM12.9585 15C12.9585 14.2089 13.2029 13.4355 13.6607 12.7777C14.1186 12.1199 14.7693 11.6072 15.5307 11.3045C16.292 11.0017 17.1298 10.9225 17.938 11.0769C18.7463 11.2312 19.4887 11.6122 20.0714 12.1716C20.6542 12.731 21.051 13.4437 21.2118 14.2196C21.3725 14.9956 21.29 15.7998 20.9747 16.5307C20.6593 17.2616 20.1252 17.8864 19.44 18.3259C18.7548 18.7654 17.9493 19 17.1252 19C16.0201 19 14.9603 18.5786 14.1789 17.8284C13.3975 17.0783 12.9585 16.0609 12.9585 15ZM25.6877 23.3013C24.5259 21.6851 22.8923 20.4348 20.9924 19.7075C22.013 18.9358 22.7577 17.878 23.123 16.6811C23.4883 15.4843 23.456 14.2079 23.0307 13.0294C22.6053 11.851 21.808 10.8291 20.7496 10.1059C19.6912 9.38262 18.4243 8.99397 17.1252 8.99397C15.826 8.99397 14.5592 9.38262 13.5008 10.1059C12.4424 10.8291 11.6451 11.851 11.2197 13.0294C10.7943 14.2079 10.762 15.4843 11.1273 16.6811C11.4927 17.878 12.2374 18.9358 13.258 19.7075C11.358 20.4348 9.72443 21.6851 8.56267 23.3013C7.09466 21.7165 6.13516 19.7581 5.79971 17.6619C5.46426 15.5657 5.76716 13.4211 6.67194 11.4864C7.57672 9.55163 9.0448 7.90922 10.8994 6.75692C12.754 5.60462 14.916 4.99156 17.1252 4.99156C19.3343 4.99156 21.4963 5.60462 23.3509 6.75692C25.2055 7.90922 26.6736 9.55163 27.5784 11.4864C28.4832 13.4211 28.7861 15.5657 28.4506 17.6619C28.1152 19.7581 27.1557 21.7165 25.6877 23.3013Z" fill="black"/>
</svg>
