<svg width="144" height="117" viewBox="0 0 144 117" fill="none" xmlns="http://www.w3.org/2000/svg">
<g filter="url(#filter0_d_2_6906)">
<path d="M125.938 41.1531C123.489 31.765 119.402 23.0134 115.153 17.0105C104.905 2.5896 81.0825 -3.7677 64.6354 2.27655C50.6102 7.43669 45.7149 22.9997 33.451 30.4578C22.1778 37.3173 11.9504 42.9109 7.99429 55.9867C-0.334176 83.6141 32.5944 105.638 57.1876 98.6439C64.9519 96.4354 71.5191 91.7809 79.8028 91.7637C96.6042 91.7052 102.525 94.0101 116.12 84.9317C129.533 75.9634 130.228 57.5898 125.938 41.1531Z" fill="#5667FD"/>
<path opacity="0.8" d="M125.938 41.1531C123.489 31.765 119.402 23.0134 115.153 17.0105C104.905 2.5896 81.0825 -3.7677 64.6354 2.27655C50.6102 7.43669 45.7149 22.9997 33.451 30.4578C22.1778 37.3173 11.9504 42.9109 7.99429 55.9867C-0.334176 83.6141 32.5944 105.638 57.1876 98.6439C64.9519 96.4354 71.5191 91.7809 79.8028 91.7637C96.6042 91.7052 102.525 94.0101 116.12 84.9317C129.533 75.9634 130.228 57.5898 125.938 41.1531Z" fill="white"/>
<path d="M137.046 101.498C135.69 101.498 135.69 103.005 134.331 103.005C132.973 103.005 132.976 101.498 131.621 101.498C130.265 101.498 130.245 103.005 128.906 103.005C127.568 103.005 127.547 101.498 126.192 101.498C124.837 101.498 124.837 103.005 123.478 103.005C122.119 103.005 122.122 101.498 120.764 101.498C119.405 101.498 119.408 103.005 118.053 103.005C116.697 103.005 116.694 101.498 115.339 101.498C113.983 101.498 113.983 103.005 112.624 103.005C111.266 103.005 111.269 101.498 109.914 101.498C108.558 101.498 108.555 103.005 107.199 103.005C105.844 103.005 105.844 101.498 104.489 101.498C103.133 101.498 103.112 103.005 101.774 103.005C100.436 103.005 100.419 101.498 99.0635 101.498C97.7081 101.498 97.7081 103.005 96.3493 103.005C94.9904 103.005 94.9939 101.498 93.6385 101.498C92.2831 101.498 92.2831 103.005 90.9277 103.005C89.5723 103.005 89.5688 101.498 88.2134 101.498C86.858 101.498 86.858 103.005 85.5027 103.005C84.1473 103.005 84.1473 101.498 82.7919 101.498C81.4365 101.498 81.4365 103.005 80.0776 103.005C78.7188 103.005 78.7222 101.498 77.3668 101.498C76.0114 101.498 76.0114 103.005 74.6526 103.005C73.2938 103.005 73.2972 101.498 71.9418 101.498C70.5864 101.498 70.5658 103.005 69.2276 103.005C67.8894 103.005 67.8722 101.498 66.5168 101.498C65.1614 101.498 65.1579 103.005 63.8025 103.005C62.4471 103.005 62.4471 101.498 61.0917 101.498C59.7363 101.498 59.7329 103.005 58.3775 103.005C57.0221 103.005 57.0221 101.498 55.6667 101.498C54.3113 101.498 54.3148 103.005 52.9387 103.005C51.5627 103.005 51.5833 101.498 50.2279 101.498C48.8725 101.498 48.8725 103.005 47.5171 103.005C46.1617 103.005 46.1583 101.498 44.8029 101.498C43.4475 101.498 43.4475 103.005 42.0921 103.005C40.7367 103.005 40.7333 101.498 39.3779 101.498C38.0225 101.498 38.0225 103.005 36.6671 103.005C35.3117 103.005 35.3117 101.498 33.9528 101.498C32.594 101.498 32.5974 103.005 31.242 103.005C29.8866 103.005 29.8866 101.498 28.5312 101.498C27.1759 101.498 27.1759 103.005 25.817 103.005C24.4582 103.005 24.4616 101.498 23.1062 101.498C21.7508 101.498 21.7508 103.005 20.3954 103.005C19.04 103.005 19.04 101.498 17.6812 101.498C16.3224 101.498 16.3258 103.005 14.9704 103.005C13.615 103.005 13.615 101.498 12.2596 101.498C10.9042 101.498 10.9042 103.005 9.54537 103.005C8.18653 103.005 8.21749 101.498 6.84146 101.498C5.46542 101.498 5.48606 103.005 4.13066 103.005H3.99994V108.028H139.381V102.954C138.394 102.696 138.253 101.498 137.046 101.498Z" fill="#5667FD"/>
<path d="M33.8116 107.068V93.1669" stroke="#263238" stroke-width="1.65533" stroke-miterlimit="10"/>
<path d="M27.396 93.8104L33.8118 98.5165" stroke="#263238" stroke-width="1.65533" stroke-miterlimit="10"/>
<path d="M33.8116 103.218L41.0839 93.5963" stroke="#263238" stroke-width="1.65533" stroke-miterlimit="10"/>
<path d="M53.3892 94.2229V89.7921C53.3897 87.3424 52.9076 84.9165 51.9704 82.6532C51.0332 80.3898 49.6594 78.3332 47.9273 76.6008C46.1953 74.8684 44.1389 73.4942 41.8757 72.5566C39.6125 71.619 37.1868 71.1365 34.737 71.1365C32.2873 71.1365 29.8616 71.619 27.5983 72.5566C25.3351 73.4942 23.2788 74.8684 21.5467 76.6008C19.8147 78.3332 18.4408 80.3898 17.5037 82.6532C16.5665 84.9165 16.0844 87.3424 16.0848 89.7921V94.2229H53.3892Z" fill="#5667FD"/>
<path opacity="0.5" d="M53.3892 94.2229V89.7921C53.3897 87.3424 52.9076 84.9165 51.9704 82.6532C51.0332 80.3898 49.6594 78.3332 47.9273 76.6008C46.1953 74.8684 44.1389 73.4942 41.8757 72.5566C39.6125 71.619 37.1868 71.1365 34.737 71.1365C32.2873 71.1365 29.8616 71.619 27.5983 72.5566C25.3351 73.4942 23.2788 74.8684 21.5467 76.6008C19.8147 78.3332 18.4408 80.3898 17.5037 82.6532C16.5665 84.9165 16.0844 87.3424 16.0848 89.7921V94.2229H53.3892Z" fill="white"/>
<path opacity="0.1" d="M16.085 94.2226H53.3894V89.7917C53.3897 87.0947 52.8028 84.43 51.6693 81.9827L51.5661 82.0791C51.3681 81.65 51.0521 81.2862 50.6551 81.03C50.258 80.7738 49.7963 80.6359 49.3238 80.6323C48.8513 80.6287 48.3875 80.7595 47.9866 81.0096C47.5857 81.2597 47.2642 81.6187 47.0596 82.0446C46.8219 81.8679 46.5336 81.7726 46.2374 81.7729C45.9472 81.7676 45.6632 81.8576 45.429 82.0291C45.1948 82.2006 45.0232 82.4441 44.9405 82.7223C44.813 82.5397 44.6431 82.3908 44.4454 82.2884C44.2476 82.1859 44.028 82.133 43.8053 82.1341C43.4945 82.1332 43.1926 82.2374 42.9487 82.4299C42.8696 82.1598 42.7095 81.9203 42.4901 81.744C42.2707 81.5676 42.0024 81.4628 41.7216 81.4437C41.4407 81.4246 41.1607 81.492 40.9194 81.637C40.6781 81.782 40.4871 81.9975 40.3721 82.2545C40.1398 82.0966 39.8652 82.0127 39.5843 82.0137C39.2451 82.0108 38.9168 82.1333 38.6623 82.3577C38.4728 81.9311 38.167 81.5665 37.7799 81.3056C37.3929 81.0446 36.9402 80.8979 36.4737 80.8821C36.0071 80.8663 35.5456 80.9821 35.1418 81.2163C34.738 81.4505 34.4082 81.7936 34.1902 82.2063C34.0614 82.0323 33.8933 81.8911 33.6996 81.7943C33.506 81.6974 33.2922 81.6477 33.0756 81.649C32.7839 81.6434 32.4985 81.7341 32.2635 81.9069C32.0284 82.0798 31.8569 82.3253 31.7753 82.6054C31.6749 82.3548 31.5007 82.1407 31.2759 81.9914C31.051 81.8421 30.7861 81.7647 30.5162 81.7694C30.3203 81.7705 30.1269 81.8135 29.9489 81.8953C29.7709 81.9772 29.6125 82.0961 29.4842 82.2442C29.3729 81.9947 29.1899 81.7841 28.9585 81.639C28.7271 81.4939 28.4578 81.421 28.1848 81.4295C27.9118 81.4379 27.6475 81.5275 27.4256 81.6866C27.2036 81.8458 27.0341 82.0674 26.9385 82.3233C26.684 82.07 26.3783 81.8739 26.042 81.7482C25.7056 81.6225 25.3462 81.5702 24.988 81.5946C24.6297 81.619 24.2808 81.7197 23.9646 81.8899C23.6484 82.06 23.3721 82.2958 23.1544 82.5813C23.0924 82.2789 22.9262 82.0078 22.6848 81.8154C22.4433 81.623 22.142 81.5215 21.8334 81.5286C21.5655 81.5247 21.3026 81.6014 21.0788 81.7486C20.8549 81.8957 20.6804 82.1068 20.5778 82.3543C20.4458 82.2223 20.2884 82.1186 20.1152 82.0494C19.9419 81.9802 19.7563 81.947 19.5698 81.9518C19.4379 81.953 19.3069 81.9739 19.1811 82.0137C18.9866 81.5953 18.6731 81.2435 18.2798 81.0023C16.8321 83.7055 16.0768 86.7253 16.0816 89.7917L16.085 94.2226Z" fill="#263238"/>
<path opacity="0.1" d="M53.3896 89.7925C53.3905 88.5601 53.2695 87.3306 53.0284 86.122C52.8563 86.0971 52.6827 86.0845 52.5089 86.0841C51.2705 86.0841 50.2144 86.6689 49.7568 87.498C49.4529 87.3178 49.1056 87.2238 48.7523 87.2262C48.4232 87.2042 48.0952 87.2833 47.8123 87.453C47.5295 87.6227 47.3053 87.8749 47.1699 88.1757C46.997 87.9835 46.7844 87.8314 46.5467 87.7298C46.3091 87.6282 46.0522 87.5796 45.7938 87.5874C45.4287 87.5863 45.0708 87.6889 44.7618 87.8833C44.6139 87.3053 43.95 86.8513 43.1553 86.8513C42.8459 86.8344 42.5379 86.9044 42.2662 87.0533C41.9945 87.2022 41.7698 87.4242 41.6176 87.6941C41.3245 87.5336 40.9953 87.4508 40.6612 87.4533C40.2595 87.4472 39.8659 87.5675 39.5363 87.7973C39.1166 86.9269 38.0364 86.3077 36.7602 86.3077C35.563 86.3077 34.531 86.8581 34.0666 87.6459C33.8916 87.4632 33.6803 87.3192 33.4462 87.2232C33.2122 87.1272 32.9606 87.0814 32.7077 87.0886C32.3773 87.0664 32.0479 87.1462 31.7643 87.3172C31.4807 87.4883 31.2564 87.7423 31.1218 88.045C30.9687 87.7772 30.7441 87.5572 30.4732 87.4096C30.2022 87.262 29.8956 87.1925 29.5876 87.209C29.1186 87.2009 28.6638 87.3705 28.3147 87.6837C28.1595 87.4226 27.9357 87.2089 27.6677 87.0657C27.3997 86.9226 27.0976 86.8556 26.7942 86.8719C26.471 86.8515 26.1491 86.928 25.8696 87.0917C25.5902 87.2553 25.3659 87.4986 25.2255 87.7904C24.6085 87.2995 23.8397 87.0392 23.0514 87.0542C22.5978 87.0412 22.1465 87.1225 21.7261 87.293C21.3056 87.4636 20.9252 87.7196 20.6089 88.045C20.4782 87.4498 19.8108 86.9923 18.9989 86.9923C18.6917 86.9763 18.3861 87.0452 18.1154 87.1914C17.8448 87.3377 17.6196 87.5556 17.4647 87.8214C17.1255 87.5495 16.7021 87.4047 16.2675 87.412C16.1666 88.2026 16.116 88.9989 16.1162 89.796V94.2268H53.3896V89.7925Z" fill="#263238"/>
<path d="M109.37 107.068V93.1669" stroke="#263238" stroke-width="1.65533" stroke-miterlimit="10"/>
<path d="M102.954 93.8104L109.37 98.5165" stroke="#263238" stroke-width="1.65533" stroke-miterlimit="10"/>
<path d="M109.37 103.218L116.642 93.5963" stroke="#263238" stroke-width="1.65533" stroke-miterlimit="10"/>
<path d="M128.965 94.2229V89.7921C128.965 87.3424 128.483 84.9165 127.546 82.6532C126.609 80.3898 125.235 78.3332 123.503 76.6008C121.771 74.8684 119.714 73.4942 117.451 72.5566C115.188 71.619 112.762 71.1365 110.312 71.1365C107.863 71.1365 105.437 71.619 103.174 72.5566C100.91 73.4942 98.8541 74.8684 97.122 76.6008C95.39 78.3332 94.0161 80.3898 93.079 82.6532C92.1418 84.9165 91.6597 87.3424 91.6602 89.7921V94.2229H128.965Z" fill="#5667FD"/>
<path opacity="0.5" d="M128.965 94.2229V89.7921C128.965 87.3424 128.483 84.9165 127.546 82.6532C126.609 80.3898 125.235 78.3332 123.503 76.6008C121.771 74.8684 119.714 73.4942 117.451 72.5566C115.188 71.619 112.762 71.1365 110.312 71.1365C107.863 71.1365 105.437 71.619 103.174 72.5566C100.91 73.4942 98.8541 74.8684 97.122 76.6008C95.39 78.3332 94.0161 80.3898 93.079 82.6532C92.1418 84.9165 91.6597 87.3424 91.6602 89.7921V94.2229H128.965Z" fill="white"/>
<path opacity="0.1" d="M91.6431 94.2226H128.965V89.7917C128.965 87.0947 128.378 84.43 127.245 81.9827L127.141 82.0791C126.943 81.65 126.627 81.2862 126.23 81.03C125.833 80.7738 125.372 80.6359 124.899 80.6323C124.427 80.6287 123.963 80.7595 123.562 81.0096C123.161 81.2597 122.839 81.6187 122.635 82.0446C122.397 81.8679 122.109 81.7726 121.813 81.7729C121.523 81.7676 121.239 81.8576 121.004 82.0291C120.77 82.2006 120.599 82.4441 120.516 82.7223C120.388 82.5397 120.218 82.3908 120.021 82.2884C119.823 82.1859 119.603 82.133 119.381 82.1341C119.07 82.1332 118.768 82.2374 118.524 82.4299C118.445 82.1598 118.285 81.9203 118.065 81.744C117.846 81.5676 117.578 81.4628 117.297 81.4437C117.016 81.4246 116.736 81.492 116.495 81.637C116.253 81.782 116.062 81.9975 115.947 82.2545C115.715 82.0966 115.44 82.0127 115.16 82.0137C114.82 82.0108 114.492 82.1333 114.238 82.3577C114.048 81.9311 113.742 81.5665 113.355 81.3056C112.968 81.0446 112.516 80.8979 112.049 80.8821C111.582 80.8663 111.121 80.9821 110.717 81.2163C110.313 81.4505 109.984 81.7936 109.766 82.2063C109.637 82.0323 109.469 81.8911 109.275 81.7943C109.081 81.6974 108.867 81.6477 108.651 81.649C108.359 81.6434 108.074 81.7341 107.839 81.9069C107.604 82.0798 107.432 82.3253 107.351 82.6054C107.25 82.3548 107.076 82.1407 106.851 81.9914C106.626 81.8421 106.361 81.7647 106.092 81.7694C105.896 81.7705 105.702 81.8135 105.524 81.8953C105.346 81.9772 105.188 82.0961 105.059 82.2442C104.948 81.9947 104.765 81.7841 104.534 81.639C104.302 81.4939 104.033 81.421 103.76 81.4295C103.487 81.4379 103.223 81.5275 103.001 81.6866C102.779 81.8458 102.609 82.0674 102.514 82.3233C102.259 82.07 101.954 81.8739 101.617 81.7482C101.281 81.6225 100.922 81.5702 100.563 81.5946C100.205 81.619 99.8561 81.7197 99.5399 81.8899C99.2237 82.06 98.9475 82.2958 98.7297 82.5813C98.6677 82.2789 98.5015 82.0078 98.2601 81.8154C98.0187 81.623 97.7173 81.5215 97.4087 81.5286C97.1408 81.5247 96.8779 81.6014 96.6541 81.7486C96.4302 81.8957 96.2557 82.1068 96.1531 82.3543C96.0243 82.2247 95.8709 82.122 95.702 82.0523C95.5331 81.9826 95.352 81.9473 95.1692 81.9483C95.0373 81.9496 94.9063 81.9705 94.7805 82.0102C94.5858 81.5909 94.2709 81.2389 93.8757 80.9989C92.43 83.7027 91.676 86.7223 91.681 89.7883L91.6431 94.2226Z" fill="#263238"/>
<path opacity="0.1" d="M128.965 89.7925C128.966 88.5601 128.845 87.3306 128.604 86.122C128.432 86.0971 128.258 86.0845 128.084 86.0841C126.846 86.0841 125.79 86.6689 125.332 87.498C125.028 87.3178 124.681 87.2238 124.328 87.2262C123.999 87.2042 123.671 87.2833 123.388 87.453C123.105 87.6227 122.881 87.8749 122.745 88.1757C122.572 87.9835 122.36 87.8314 122.122 87.7298C121.884 87.6282 121.628 87.5796 121.369 87.5874C121.004 87.5863 120.646 87.6889 120.337 87.8833C120.189 87.3053 119.525 86.8513 118.731 86.8513C118.421 86.8344 118.113 86.9044 117.842 87.0533C117.57 87.2022 117.345 87.4242 117.193 87.6941C116.9 87.5336 116.571 87.4508 116.237 87.4533C115.835 87.4472 115.441 87.5675 115.112 87.7973C114.692 86.9269 113.612 86.3077 112.336 86.3077C111.138 86.3077 110.106 86.8581 109.642 87.6459C109.467 87.4632 109.256 87.3192 109.022 87.2232C108.788 87.1272 108.536 87.0814 108.283 87.0886C107.953 87.0664 107.623 87.1462 107.34 87.3172C107.056 87.4883 106.832 87.7423 106.697 88.045C106.544 87.7772 106.319 87.5572 106.049 87.4096C105.778 87.262 105.471 87.1925 105.163 87.209C104.694 87.2009 104.239 87.3705 103.89 87.6837C103.737 87.4159 103.512 87.196 103.241 87.0484C102.97 86.9007 102.664 86.8313 102.356 86.8478C102.033 86.8274 101.711 86.904 101.431 87.0676C101.152 87.2312 100.928 87.4745 100.787 87.7663C100.17 87.2755 99.4013 87.0151 98.613 87.0301C98.1594 87.0171 97.7081 87.0984 97.2877 87.2689C96.8672 87.4395 96.4868 87.6956 96.1705 88.0209C96.0398 87.4257 95.3724 86.9682 94.5605 86.9682C94.2533 86.9522 93.9477 87.0211 93.677 87.1674C93.4064 87.3136 93.1812 87.5315 93.0263 87.7973C92.6871 87.5255 92.2637 87.3807 91.8291 87.3879C91.7281 88.1786 91.6776 88.9748 91.6777 89.7719V94.2027H128.965V89.7925Z" fill="#263238"/>
<path d="M100.175 11.7442C98.7987 11.0011 98.1932 11.6204 97.6979 11.0011C97.2025 10.3819 99.0739 8.76851 95.3448 7.15855C95.3448 7.15855 95.0971 3.69093 90.0196 3.56709C84.942 3.44325 86.3077 7.03471 84.9317 7.90161C83.5556 8.76852 83.2116 7.40624 81.8356 8.27314C80.4595 9.14004 81.0925 10.8773 79.9779 11.125C78.8633 11.3727 77.3772 10.0104 76.0149 10.8773C74.6527 11.7442 74.6389 12.4873 74.03 12.4873C73.4211 12.4873 72.1724 11.9919 71.4293 12.4873C70.6862 12.9826 69.8193 13.6018 69.8193 13.6018H101.159C101.159 13.6018 101.537 12.4873 100.175 11.7442Z" fill="white"/>
<path d="M120.021 43.2694C119.078 42.7568 118.645 43.1869 118.301 42.7568C117.957 42.3268 119.24 41.2157 116.674 40.1045C116.674 40.1045 116.502 37.6965 112.993 37.6242C109.484 37.552 110.426 40.0323 109.487 40.6171C108.548 41.2019 108.287 40.2731 107.347 40.8751C106.408 41.4771 106.835 42.6708 106.064 42.8428C105.294 43.0149 104.265 42.0723 103.312 42.6708C102.359 43.2694 102.37 43.7854 101.936 43.7854C101.503 43.7854 100.653 43.4414 100.137 43.7854C99.621 44.1294 99.0259 44.556 99.0259 44.556H120.709C120.709 44.556 120.974 43.7854 120.021 43.2694Z" fill="white"/>
<path d="M107.083 38.4195C106.491 38.0995 106.223 38.3679 106.01 38.0995C105.796 37.8312 106.601 37.1294 104.978 36.4311C104.978 36.4311 104.867 34.9243 102.662 34.8727C100.457 34.8211 101.049 36.376 100.457 36.7544C99.8656 37.1329 99.7074 36.5377 99.1157 36.9161C98.524 37.2945 98.7923 38.0445 98.3072 38.1511C97.8222 38.2578 97.1789 37.6695 96.5872 38.0445C95.9955 38.4195 95.9955 38.7325 95.7272 38.7325C95.4588 38.7325 94.9187 38.5192 94.5954 38.7325C94.272 38.9458 93.9073 39.2176 93.9073 39.2176H107.513C107.55 39.055 107.527 38.8845 107.448 38.7377C107.369 38.5909 107.239 38.4778 107.083 38.4195Z" fill="white"/>
<path d="M58.7459 50.4079C56.6303 49.2554 55.6705 50.2152 54.8999 49.2554C54.1293 48.2956 57.0156 45.7947 51.2465 43.2937C51.2465 43.2937 50.8612 37.9066 42.9903 37.7174C35.1194 37.5281 37.2213 43.1011 35.1056 44.4462C32.9899 45.7913 32.412 43.679 30.2895 45.0241C28.1669 46.3692 29.137 49.0628 27.4067 49.4481C25.6763 49.8334 23.368 47.728 21.2523 49.0628C19.1367 50.3975 19.1367 51.5637 18.1563 51.5637C17.1758 51.5637 15.2735 50.7931 14.1176 51.5637C12.9617 52.3343 11.6166 53.2838 11.6166 53.2838H60.2871C60.2871 53.2838 60.8513 51.5637 58.7459 50.4079Z" fill="white"/>
<path d="M62.2275 79.1914C62.2275 79.1914 62.3754 83.4674 63.4074 86.1714C64.4395 88.8753 68.8634 96.5432 69.9436 98.4594C71.0238 100.375 71.3196 100.916 71.3196 100.916C70.4614 101.972 69.6576 103.072 68.9116 104.211C68.1754 105.439 66.8475 106.079 67.1434 106.571C67.4392 107.063 67.7832 107.011 69.3554 106.619C70.9275 106.227 71.4194 105.34 72.6991 104.308C73.9788 103.275 75.0074 103.227 75.0556 102.44C75.1038 101.652 73.4835 100.179 73.1395 99.2437C72.7954 98.308 70.8312 94.1833 69.6994 89.7078C68.5676 85.2322 67.4874 83.8114 67.4392 83.2714C67.3911 82.7313 67.8795 79.3359 67.8795 79.3359L62.2275 79.1914Z" fill="white"/>
<path d="M75.0351 102.308C74.925 101.499 73.4526 100.13 73.1258 99.2425C72.799 98.3549 70.8175 94.1821 69.6857 89.7065C68.5539 85.231 67.4737 83.8102 67.4256 83.2701C67.3774 82.73 67.8659 79.3347 67.8659 79.3347L62.2276 79.1902C62.2276 79.1902 62.2792 80.7245 62.5441 82.5374C62.8606 82.5856 63.2321 82.6268 63.6759 82.6544C64.6354 82.7288 65.6004 82.6226 66.5208 82.3413C66.5208 82.3413 66.2043 83.6038 67.257 86.8685C68.3097 90.1331 71.681 98.035 72.4172 99.4042C72.8059 100.151 74.0134 101.358 75.0351 102.308Z" fill="#5667FD"/>
<path opacity="0.5" d="M75.0351 102.308C74.925 101.499 73.4526 100.13 73.1258 99.2425C72.799 98.3549 70.8175 94.1821 69.6857 89.7065C68.5539 85.231 67.4737 83.8102 67.4256 83.2701C67.3774 82.73 67.8659 79.3347 67.8659 79.3347L62.2276 79.1902C62.2276 79.1902 62.2792 80.7245 62.5441 82.5374C62.8606 82.5856 63.2321 82.6268 63.6759 82.6544C64.6354 82.7288 65.6004 82.6226 66.5208 82.3413C66.5208 82.3413 66.2043 83.6038 67.257 86.8685C68.3097 90.1331 71.681 98.035 72.4172 99.4042C72.8059 100.151 74.0134 101.358 75.0351 102.308Z" fill="white"/>
<path d="M62.2275 79.1914C62.2275 79.1914 62.3754 83.4674 63.4074 86.1714C64.4395 88.8753 68.8634 96.5432 69.9436 98.4594C71.0238 100.375 71.3196 100.916 71.3196 100.916C70.4614 101.972 69.6576 103.072 68.9116 104.211C68.1754 105.439 66.8475 106.079 67.1434 106.571C67.4392 107.063 67.7832 107.011 69.3554 106.619C70.9275 106.227 71.4194 105.34 72.6991 104.308C73.9788 103.275 75.0074 103.227 75.0556 102.44C75.1038 101.652 73.4835 100.179 73.1395 99.2437C72.7954 98.308 70.8312 94.1833 69.6994 89.7078C68.5676 85.2322 67.4874 83.8114 67.4392 83.2714C67.3911 82.7313 67.8795 79.3359 67.8795 79.3359L62.2275 79.1914Z" stroke="#263238" stroke-width="0.75" stroke-linecap="round" stroke-linejoin="round"/>
<path d="M75.0419 102.439C75.0694 102.033 74.6463 101.442 74.1853 100.836L71.8977 102.835C71.8977 102.835 71.65 102.147 71.3576 101.507C71.3075 101.368 71.2163 101.248 71.0961 101.163C70.3111 102.134 69.5773 103.146 68.8979 104.194C68.1617 105.422 66.8338 106.062 67.1297 106.554C67.4255 107.046 67.7695 106.994 69.3417 106.602C70.9138 106.21 71.4057 105.322 72.6854 104.29C73.9651 103.258 74.9937 103.227 75.0419 102.439Z" fill="#263238" stroke="#263238" stroke-width="0.75" stroke-linecap="round" stroke-linejoin="round"/>
<path d="M73.4695 78.7474C73.9967 80.3581 74.7583 81.8824 75.7296 83.2712C77.4497 85.8272 84.2335 93.0032 84.8734 93.9355C85.5133 94.8677 86.645 98.8032 87.0854 100.179C87.5257 101.555 88.9052 101.015 89.3971 99.2435C89.8891 97.4719 87.137 93.5433 86.5934 92.7555C86.0499 91.9677 83.1534 88.4313 81.3851 84.1037C79.6169 79.776 78.5815 77.3232 78.5815 77.3232C78.5815 77.3232 74.1575 78.2074 73.4695 78.7474Z" fill="white"/>
<path d="M86.594 92.7555C86.0539 91.9712 83.1539 88.4313 81.3857 84.1037C79.6175 79.776 78.582 77.3232 78.582 77.3232C78.582 77.3232 74.1581 78.2074 73.47 78.7474C73.7842 79.7346 74.1992 80.6868 74.7085 81.589C75.8734 81.4921 77.0157 81.2123 78.0935 80.7599C78.0935 80.7599 80.622 86.4498 82.4143 88.9783C83.3637 90.3199 85.4175 92.1397 87.1341 93.5502C86.8967 93.1924 86.7006 92.9103 86.594 92.7555Z" fill="#5667FD"/>
<path opacity="0.5" d="M86.594 92.7555C86.0539 91.9712 83.1539 88.4313 81.3857 84.1037C79.6175 79.776 78.582 77.3232 78.582 77.3232C78.582 77.3232 74.1581 78.2074 73.47 78.7474C73.7842 79.7346 74.1992 80.6868 74.7085 81.589C75.8734 81.4921 77.0157 81.2123 78.0935 80.7599C78.0935 80.7599 80.622 86.4498 82.4143 88.9783C83.3637 90.3199 85.4175 92.1397 87.1341 93.5502C86.8967 93.1924 86.7006 92.9103 86.594 92.7555Z" fill="white"/>
<path d="M73.4695 78.7474C73.9967 80.3581 74.7583 81.8824 75.7296 83.2712C77.4497 85.8272 84.2335 93.0032 84.8734 93.9355C85.5133 94.8677 86.645 98.8032 87.0854 100.179C87.5257 101.555 88.9052 101.015 89.3971 99.2435C89.8891 97.4719 87.137 93.5433 86.5934 92.7555C86.0499 91.9677 83.1534 88.4313 81.3851 84.1037C79.6169 79.776 78.5815 77.3232 78.5815 77.3232C78.5815 77.3232 74.1575 78.2074 73.4695 78.7474Z" stroke="#263238" stroke-width="0.75" stroke-linecap="round" stroke-linejoin="round"/>
<path d="M87.0853 100.179C87.5291 101.555 88.9051 101.015 89.397 99.243C89.889 97.4713 87.1369 93.5427 86.5934 92.755L86.4489 92.552C86.6897 93.1953 86.9374 93.8386 86.9374 93.8386C86.7886 93.6831 86.5988 93.5728 86.3901 93.5205C86.1813 93.4682 85.962 93.4759 85.7574 93.5428C84.9731 93.7388 85.3653 94.9188 85.3653 94.9188V94.9497C85.9845 96.5047 86.7413 99.1088 87.0853 100.179Z" fill="#263238" stroke="#263238" stroke-width="0.75" stroke-linecap="round" stroke-linejoin="round"/>
<path d="M53.9712 68.7399C53.9712 68.7399 54.7349 66.9992 57.5764 66.4901C60.4179 65.9809 64.0025 68.8981 65.4611 69.4176C66.9197 69.9371 67.7316 60.5456 66.2764 51.7252C64.8212 42.9048 62.7778 42.2546 59.7161 46.3346C56.6545 50.4145 54.267 66.263 53.9712 68.7399Z" fill="#263238" stroke="#263238" stroke-width="0.75" stroke-linecap="round" stroke-linejoin="round"/>
<path d="M93.532 43.3555C89.3558 35.2919 86.2562 34.2117 83.7519 32.3472C81.2475 30.4826 81.0961 30.431 78.9839 28.9071C76.8717 27.3831 72.6851 25.608 71.1714 25.2158C70.7479 25.0946 70.3007 25.0818 69.8709 25.1786C69.4411 25.2754 69.0425 25.4786 68.7118 25.7697C68.7118 25.7697 66.5479 26.4577 63.8956 29.1479C61.2433 31.838 63.5 34.1119 63.5 34.1119C63.5 34.1119 62.812 37.1117 66.3037 40.5518C69.7954 43.9919 71.8079 54.0232 83.5042 54.6114C95.2005 55.1997 97.7049 51.4156 93.532 43.3555ZM64.5321 31.8036C63.7064 32.9561 63.6995 33.4893 63.7856 33.7163C63.8174 33.7692 63.8531 33.8198 63.8922 33.8677C63.841 33.8303 63.8035 33.7771 63.7856 33.7163C63.6102 33.4055 63.4989 33.0628 63.4581 32.7083C63.4174 32.3538 63.448 31.9947 63.5482 31.6523C63.8922 30.2281 66.5961 28.852 66.5961 28.852C66.5961 28.852 65.7533 30.0836 64.5252 31.8036H64.5321Z" fill="#263238" stroke="#263238" stroke-width="0.75" stroke-linecap="round" stroke-linejoin="round"/>
<path d="M68.7636 38.2913C68.1494 38.2993 67.5374 38.217 66.9472 38.0471C65.8154 37.7512 64.8831 38.0471 63.6516 39.4713C62.42 40.8955 60.9477 44.7312 60.9477 47.583C60.9477 50.4349 62.7193 53.7752 62.7193 53.7752C62.7193 53.7752 60.7516 56.5789 59.9672 61.8869C59.1829 67.195 60.3594 80.0231 60.3594 80.0231C60.3594 80.0231 65.5712 81.2547 70.9274 80.3671C74.2456 79.8021 77.481 78.828 80.5597 77.4671C80.5597 77.4671 80.7557 71.7187 78.2961 64.1471C77.0243 60.1093 75.5477 56.1388 73.8721 52.2512C73.8721 52.2512 75.1518 47.1874 75.2 43.7473C75.2481 40.3072 74.02 39.1754 73.0878 38.7351C72.1555 38.2948 68.7636 38.2913 68.7636 38.2913Z" fill="#263238"/>
<path opacity="0.3" d="M68.7635 38.2926C68.1494 38.3005 67.5374 38.2182 66.9471 38.0483C65.8154 37.7525 64.8831 38.0483 63.6515 39.4725C62.42 40.8967 60.9476 44.7324 60.9476 47.5842C60.9476 50.4361 62.7193 53.7764 62.7193 53.7764C62.7193 53.7764 60.7515 56.5801 59.9672 61.8882C59.1828 67.1962 60.3594 80.0243 60.3594 80.0243C60.3594 80.0243 65.5711 81.2559 70.9273 80.3683C74.2456 79.8033 77.481 78.8292 80.5596 77.4683C80.5596 77.4683 80.7557 71.7199 78.296 64.1483C77.0242 60.1105 75.5477 56.1401 73.8721 52.2525C73.8721 52.2525 75.1518 47.1886 75.1999 43.7485C75.2481 40.3084 74.02 39.1767 73.0877 38.7363C72.1554 38.296 68.7635 38.2926 68.7635 38.2926Z" fill="white" stroke="#263238" stroke-width="0.75" stroke-linecap="round" stroke-linejoin="round"/>
<path d="M68.7636 38.2913C68.1494 38.2993 67.5374 38.217 66.9472 38.0471C65.8154 37.7512 64.8831 38.0471 63.6516 39.4713C62.42 40.8955 60.9477 44.7312 60.9477 47.583C60.9477 50.4349 62.7193 53.7752 62.7193 53.7752C62.7193 53.7752 60.7516 56.5789 59.9672 61.8869C59.1829 67.195 60.3594 80.0231 60.3594 80.0231C60.3594 80.0231 65.5712 81.2547 70.9274 80.3671C74.2456 79.8021 77.481 78.828 80.5597 77.4671C80.5597 77.4671 80.7557 71.7187 78.2961 64.1471C77.0243 60.1093 75.5477 56.1388 73.8721 52.2512C73.8721 52.2512 75.1518 47.1874 75.2 43.7473C75.2481 40.3072 74.02 39.1754 73.0878 38.7351C72.1555 38.2948 68.7636 38.2913 68.7636 38.2913Z" stroke="#263238" stroke-width="0.75" stroke-linecap="round" stroke-linejoin="round"/>
<path d="M67.4251 49.0557C67.4251 49.0557 68.2094 51.4637 70.3251 52.5474" stroke="#263238" stroke-width="0.75" stroke-linecap="round" stroke-linejoin="round"/>
<path d="M68.3575 34.8517C68.243 35.9105 67.9957 36.9507 67.6213 37.9478C67.0812 39.1759 66.7372 38.8835 66.2453 41.0955C65.7534 43.3074 67.4252 46.2556 69.2932 45.0275C71.1612 43.7994 72.3411 41.2915 72.2414 40.3558C72.1416 39.4201 71.7013 39.2275 71.7013 37.9478C71.7156 37.1011 71.8311 36.2592 72.0453 35.4399C72.0453 35.4399 69.4893 35.636 68.3575 34.8517Z" fill="white"/>
<path d="M68.3576 34.8518C68.2432 35.8919 68.0029 36.9142 67.6421 37.8963C68.2544 38.5637 69.5032 39.3102 71.7289 38.4501C71.71 38.2834 71.7008 38.1157 71.7014 37.9479C71.7154 37.1012 71.8309 36.2593 72.0454 35.4401C72.0454 35.4401 69.4894 35.6361 68.3576 34.8518Z" fill="#5667FD"/>
<path opacity="0.5" d="M68.3576 34.8518C68.2432 35.8919 68.0029 36.9142 67.6421 37.8963C68.2544 38.5637 69.5032 39.3102 71.7289 38.4501C71.71 38.2834 71.7008 38.1157 71.7014 37.9479C71.7154 37.1012 71.8309 36.2593 72.0454 35.4401C72.0454 35.4401 69.4894 35.6361 68.3576 34.8518Z" fill="white"/>
<path d="M68.3575 34.8517C68.243 35.9105 67.9957 36.9507 67.6213 37.9478C67.0812 39.1759 66.7372 38.8835 66.2453 41.0955C65.7534 43.3074 67.4252 46.2556 69.2932 45.0275C71.1612 43.7994 72.3411 41.2915 72.2414 40.3558C72.1416 39.4201 71.7013 39.2275 71.7013 37.9478C71.7156 37.1011 71.8311 36.2592 72.0453 35.4399C72.0453 35.4399 69.4893 35.636 68.3575 34.8517Z" stroke="#263238" stroke-width="0.75" stroke-linecap="round" stroke-linejoin="round"/>
<path d="M69.8337 22.3644C69.8337 22.3644 67.03 30.4762 66.8339 32.5918C66.7877 33.1281 66.8519 33.6682 67.0226 34.1788C67.1933 34.6893 67.4668 35.1594 67.8262 35.5601C68.1856 35.9608 68.6234 36.2836 69.1125 36.5085C69.6015 36.7334 70.1315 36.8557 70.6696 36.8679C73.0777 36.916 74.9938 34.1158 74.9938 34.1158C74.9938 34.1158 75.9777 34.9036 77.254 34.0195C78.5303 33.1354 81.4922 25.316 81.4922 25.316C81.4922 25.316 79.9682 22.7084 76.0843 21.9723C72.2005 21.2361 69.8337 22.3644 69.8337 22.3644Z" fill="white"/>
<path d="M76.0734 21.9724C75.3922 21.8428 74.7023 21.7634 74.0094 21.735L72.8432 25.8631C72.8432 25.8631 74.5254 30.7308 74.4222 32.1C74.319 33.4691 73.1562 36.1008 70.1014 36.1008C69.3786 36.1066 68.661 35.9771 67.9858 35.719C68.6976 36.4443 69.6667 36.8596 70.6828 36.8748C73.0909 36.923 75.007 34.1228 75.007 34.1228C75.007 34.1228 75.9909 34.9106 77.2672 34.0264C78.5434 33.1423 81.4916 25.3161 81.4916 25.3161C81.4916 25.3161 79.9573 22.7085 76.0734 21.9724Z" fill="#5667FD"/>
<path opacity="0.5" d="M76.0734 21.9724C75.3922 21.8428 74.7023 21.7634 74.0094 21.735L72.8432 25.8631C72.8432 25.8631 74.5254 30.7308 74.4222 32.1C74.319 33.4691 73.1562 36.1008 70.1014 36.1008C69.3786 36.1066 68.661 35.9771 67.9858 35.719C68.6976 36.4443 69.6667 36.8596 70.6828 36.8748C73.0909 36.923 75.007 34.1228 75.007 34.1228C75.007 34.1228 75.9909 34.9106 77.2672 34.0264C78.5434 33.1423 81.4916 25.3161 81.4916 25.3161C81.4916 25.3161 79.9573 22.7085 76.0734 21.9724Z" fill="white"/>
<path d="M69.8337 22.3644C69.8337 22.3644 67.03 30.4762 66.8339 32.5918C66.7877 33.1281 66.8519 33.6682 67.0226 34.1788C67.1933 34.6893 67.4668 35.1594 67.8262 35.5601C68.1856 35.9608 68.6234 36.2836 69.1125 36.5085C69.6015 36.7334 70.1315 36.8557 70.6696 36.8679C73.0777 36.916 74.9938 34.1158 74.9938 34.1158C74.9938 34.1158 75.9777 34.9036 77.254 34.0195C78.5303 33.1354 81.4922 25.316 81.4922 25.316C81.4922 25.316 79.9682 22.7084 76.0843 21.9723C72.2005 21.2361 69.8337 22.3644 69.8337 22.3644Z" stroke="#263238" stroke-width="0.75" stroke-linecap="round" stroke-linejoin="round"/>
<path d="M71.2095 28.4114C71.0627 28.9113 70.7271 29.3345 70.2738 29.5913C69.5376 29.9835 68.8977 29.9353 69.1454 30.3275C69.3719 30.6008 69.683 30.7909 70.0295 30.8676" stroke="#263238" stroke-width="0.75" stroke-linecap="round" stroke-linejoin="round"/>
<path d="M69.5373 31.704C69.9384 31.9982 70.4166 32.1691 70.9133 32.1959C71.5043 32.2419 72.0935 32.0867 72.5852 31.7556C72.5852 31.7556 71.0612 33.5238 70.2734 33.5238C69.4857 33.5238 69.5373 31.704 69.5373 31.704Z" fill="#263238"/>
<path d="M72.0933 28.8549C72.0933 28.8549 72.9774 27.9192 73.6654 29.051" stroke="#263238" stroke-width="0.75" stroke-linecap="round" stroke-linejoin="round"/>
<path d="M69.2933 28.4117C69.3788 28.32 69.4864 28.2516 69.6057 28.2131C69.7251 28.1745 69.8524 28.1672 69.9754 28.1916C70.0984 28.2161 70.2132 28.2716 70.3087 28.3529C70.4043 28.4341 70.4775 28.5385 70.5214 28.656" stroke="#263238" stroke-width="0.75" stroke-linecap="round" stroke-linejoin="round"/>
<path d="M69.1077 27.3796C69.2248 27.1306 69.414 26.9224 69.6507 26.7819C69.8874 26.6415 70.1608 26.5753 70.4355 26.5918" stroke="#263238" stroke-width="0.75" stroke-linecap="round" stroke-linejoin="round"/>
<path d="M72.4376 26.6433C72.4376 26.6433 72.9777 26.4438 73.4697 27.4277" stroke="#263238" stroke-width="0.75" stroke-linecap="round" stroke-linejoin="round"/>
<path d="M72.8297 25.8557C72.8297 25.8557 74.2057 28.8039 75.4855 31.9C76.7652 34.996 81.9735 38.8317 82.8679 39.0794C83.7623 39.3271 86.6038 34.5557 86.6038 34.5557C86.6038 34.5557 81.6157 31.0331 79.7856 29.5022C77.9555 27.9714 75.9292 26.3476 72.8297 25.8557Z" fill="#263238" stroke="#263238" stroke-width="0.75" stroke-linecap="round" stroke-linejoin="round"/>
<path d="M69.7955 24.9716L64.1951 21.3836C64.1951 21.3836 71.0753 18.5317 72.7953 16.9596C72.7953 16.9596 83.9034 24.1838 87.9833 24.6757C87.9833 24.6757 81.743 27.0838 78.8912 27.7718L69.7955 24.9716Z" fill="#5667FD" stroke="#263238" stroke-width="0.75" stroke-linecap="round" stroke-linejoin="round"/>
<path d="M81.4917 25.316C81.4917 25.316 79.9677 22.7084 76.0839 21.9723C72.2 21.2361 69.8435 22.3644 69.8435 22.3644C69.8435 22.3644 69.3206 23.8781 68.7117 25.7701C70.4284 25.3779 72.2224 25.4975 73.8719 26.1141C76.2799 26.9329 78.4575 28.4637 79.7854 29.5164C80.7039 27.3766 81.4917 25.316 81.4917 25.316Z" fill="#5667FD" stroke="#263238" stroke-width="0.75" stroke-linecap="round" stroke-linejoin="round"/>
<path d="M64.1814 21.3837C64.1814 21.3837 63.7858 24.2321 61.7217 23.9397C59.6577 23.6473 60.3938 20.8918 62.7537 18.6798C65.1136 16.4678 64.0335 13.8637 62.4579 13.4199" stroke="#263238" stroke-width="0.75" stroke-linecap="round" stroke-linejoin="round"/>
<path d="M62.8535 13.5158C62.8535 13.5158 62.2137 12.9275 60.6897 12.7315C59.1658 12.5354 56.7095 12.0434 56.8059 12.2395C56.9022 12.4356 56.854 12.9275 56.9538 13.2716C57.0535 13.6156 57.2496 14.0593 57.7897 14.0593C58.3298 14.0593 62.0658 13.9596 62.5095 13.9596C62.9533 13.9596 62.8535 13.5158 62.8535 13.5158Z" fill="#263238" stroke="#263238" stroke-width="0.75" stroke-linecap="round" stroke-linejoin="round"/>
<path d="M94.2201 26.0995C94.2201 26.0995 94.712 30.8193 95.6959 33.0313C96.6797 35.2433 98.0351 39.9768 97.8081 42.6635C97.6464 44.6141 96.9721 44.8755 96.4321 44.8755C95.892 44.8755 94.1582 43.6887 93.0401 41.5318C90.952 37.5103 91.5678 34.5518 92.2042 32.1919C92.8406 29.832 94.2201 26.0995 94.2201 26.0995Z" fill="#263238"/>
<path opacity="0.3" d="M94.2202 26.1006C94.2202 26.1006 94.7121 30.8204 95.696 33.0324C96.6798 35.2444 97.9802 39.8162 97.8082 42.6646C97.6912 44.6186 96.9722 44.8766 96.4321 44.8766C95.892 44.8766 94.9082 45.661 93.0402 41.5328C91.1722 37.4047 91.5679 34.5529 92.2043 32.193C92.8407 29.8331 94.2202 26.1006 94.2202 26.1006Z" fill="white" stroke="#263238" stroke-width="0.75" stroke-linecap="round" stroke-linejoin="round"/>
<path d="M94.2201 26.0995C94.2201 26.0995 94.712 30.8193 95.6959 33.0313C96.6797 35.2433 98.0351 39.9768 97.8081 42.6635C97.6464 44.6141 96.9721 44.8755 96.4321 44.8755C95.892 44.8755 94.1582 43.6887 93.0401 41.5318C90.952 37.5103 91.5678 34.5518 92.2042 32.1919C92.8406 29.832 94.2201 26.0995 94.2201 26.0995Z" stroke="#263238" stroke-width="0.75" stroke-linecap="round" stroke-linejoin="round"/>
<path d="M94.2617 26.6911C94.2617 26.6911 97.4094 22.4632 97.9976 21.2833C98.5859 20.1033 99.5216 18.8752 100.21 18.7754C100.898 18.6757 102.669 20.1515 102.766 21.0872C102.862 22.0229 101.785 23.1512 100.898 23.5434C100.322 23.7781 99.6876 23.8298 99.0813 23.6913C99.0813 23.6913 96.5253 28.3114 95.0976 30.4752C93.67 32.639 92.8375 33.6229 92.5417 33.8671C92.2458 34.1114 91.5096 32.9349 91.9534 31.3111C92.3972 29.6874 94.2617 26.6911 94.2617 26.6911Z" fill="white" stroke="#263238" stroke-width="0.75" stroke-linecap="round" stroke-linejoin="round"/>
<path d="M101.868 19.2847C101.868 19.2847 100.836 20.8327 100.946 21.1251C101.056 21.4175 101.407 21.8131 101.616 21.5448C101.826 21.2765 102.649 20.1206 102.621 19.6596C102.593 19.1987 102.243 19.0748 101.868 19.2847Z" fill="white" stroke="#263238" stroke-width="0.75" stroke-linecap="round" stroke-linejoin="round"/>
<path d="M102.594 20.0592C102.594 20.0592 101.675 21.4353 101.785 21.6795C101.895 21.9238 102.188 22.2678 102.373 22.0476C102.559 21.8274 103.292 20.7954 103.254 20.3895C103.216 19.9835 102.924 19.8769 102.594 20.0592Z" fill="white" stroke="#263238" stroke-width="0.75" stroke-linecap="round" stroke-linejoin="round"/>
<path d="M101.1 18.284C101.1 18.284 99.8689 20.1038 100.017 20.4478C100.165 20.7918 100.557 21.2356 100.805 20.9398C101.052 20.6439 102.033 19.2679 101.985 18.7278C101.936 18.1877 101.537 18.0398 101.1 18.284Z" fill="white" stroke="#263238" stroke-width="0.75" stroke-linecap="round" stroke-linejoin="round"/>
<path d="M100.161 17.4996C100.161 17.4996 98.9332 19.3159 99.0811 19.6634C99.229 20.0108 99.6212 20.4477 99.8654 20.1519C100.11 19.856 101.097 18.4834 101.045 17.9399C100.994 17.3964 100.605 17.2519 100.161 17.4996Z" fill="white" stroke="#263238" stroke-width="0.75" stroke-linecap="round" stroke-linejoin="round"/>
<path d="M97.9496 21.8759C97.9496 21.8759 99.2775 18.484 99.5733 18.484C99.8692 18.484 101.489 19.4163 101.586 19.86C101.682 20.3038 101.586 20.352 101.293 20.4001C101.001 20.4483 100.065 19.9082 100.065 19.9082C100.065 19.9082 100.506 20.9402 99.8657 21.6764C99.2259 22.4126 98.6858 22.4642 98.6858 22.4642" fill="white"/>
<path d="M97.9496 21.8759C97.9496 21.8759 99.2775 18.484 99.5733 18.484C99.8692 18.484 101.489 19.4163 101.586 19.86C101.682 20.3038 101.586 20.352 101.293 20.4001C101.001 20.4483 100.065 19.9082 100.065 19.9082C100.065 19.9082 100.506 20.9402 99.8657 21.6764C99.2259 22.4126 98.6858 22.4642 98.6858 22.4642" stroke="#263238" stroke-width="0.75" stroke-linecap="round" stroke-linejoin="round"/>
<path d="M53.9021 21.9826C53.9021 21.9826 51.3152 17.3935 50.8783 16.1344C50.4414 14.8754 49.6708 13.5544 49 13.3824C48.3292 13.2104 46.389 14.4385 46.1722 15.3535C45.9555 16.2686 46.8878 17.5242 47.7168 18.0265C48.2572 18.3351 48.8791 18.4708 49.4988 18.4152C49.4988 18.4152 51.4528 23.3208 52.5949 25.6394C53.737 27.958 54.4388 29.0451 54.7002 29.3272C54.9617 29.6093 55.8423 28.5291 55.6084 26.8641C55.3745 25.1991 53.9021 21.9826 53.9021 21.9826Z" fill="white" stroke="#263238" stroke-width="0.75" stroke-linecap="round" stroke-linejoin="round"/>
<path d="M47.294 13.6779C47.294 13.6779 48.1368 15.3463 47.982 15.6216C47.8272 15.8968 47.4385 16.227 47.263 15.9656C47.0876 15.7041 46.4064 14.421 46.5062 13.9703C46.606 13.5197 46.9465 13.4233 47.294 13.6779Z" fill="white" stroke="#263238" stroke-width="0.75" stroke-linecap="round" stroke-linejoin="round"/>
<path d="M46.4749 14.3559C46.4749 14.3559 47.2146 15.8213 47.0735 16.0759C46.9325 16.3305 46.5988 16.6091 46.444 16.3683C46.2892 16.1275 45.6871 15.0095 45.7766 14.6139C45.866 14.2183 46.1688 14.1323 46.4749 14.3559Z" fill="white" stroke="#263238" stroke-width="0.75" stroke-linecap="round" stroke-linejoin="round"/>
<path d="M48.185 12.7827C48.185 12.7827 49.1723 14.7401 48.9831 15.0635C48.7938 15.3868 48.3501 15.7756 48.1402 15.4522C47.9304 15.1288 47.1323 13.6393 47.2492 13.1095C47.3662 12.5797 47.779 12.4834 48.185 12.7827Z" fill="white" stroke="#263238" stroke-width="0.75" stroke-linecap="round" stroke-linejoin="round"/>
<path d="M49.2101 12.1193C49.2101 12.1193 50.2009 14.0801 50.0082 14.4035C49.8156 14.7269 49.3753 15.1156 49.1689 14.7922C48.9624 14.4689 48.1575 12.9793 48.2744 12.4495C48.3914 11.9197 48.8111 11.82 49.2101 12.1193Z" fill="white" stroke="#263238" stroke-width="0.75" stroke-linecap="round" stroke-linejoin="round"/>
<path d="M50.851 16.7391C50.851 16.7391 49.9635 13.2061 49.6711 13.1717C49.3787 13.1373 47.6518 13.8597 47.497 14.2829C47.3421 14.706 47.435 14.7679 47.724 14.8539C48.013 14.9399 49.0037 14.5099 49.0037 14.5099C49.0037 14.5099 48.4361 15.4766 48.9762 16.2884C49.5163 17.1003 50.0461 17.2173 50.0461 17.2173" fill="white"/>
<path d="M50.851 16.7391C50.851 16.7391 49.9635 13.2061 49.6711 13.1717C49.3787 13.1373 47.6518 13.8597 47.497 14.2829C47.3421 14.706 47.435 14.7679 47.724 14.8539C48.013 14.9399 49.0037 14.5099 49.0037 14.5099C49.0037 14.5099 48.4361 15.4766 48.9762 16.2884C49.5163 17.1003 50.0461 17.2173 50.0461 17.2173" stroke="#263238" stroke-width="0.75" stroke-linecap="round" stroke-linejoin="round"/>
<path d="M74.9554 38.2913C74.9554 38.2913 74.1195 36.7192 73.0875 36.9634C72.0554 37.2077 70.9236 40.6512 70.9236 45.2197C70.9236 49.7881 73.5794 58.8356 75.7398 64.4842C77.9002 70.1328 78.4437 78.3478 78.2476 83.4598C78.0515 88.5717 77.1674 89.2598 77.4117 89.504C77.6559 89.7483 78.5916 89.7999 83.7552 87.5397C88.9188 85.2796 88.8156 82.8681 88.8156 82.8681L87.9315 79.428C87.9315 79.428 89.7513 78.7881 92.9471 78.8397C96.143 78.8913 99.1875 76.9717 99.2872 74.316C99.387 71.6602 95.8471 68.4678 94.3713 67.2363C92.8955 66.0047 96.5592 63.3283 88.9635 58.5363C84.9042 55.9769 82.7713 51.6045 81.8356 49.7365C80.8999 47.8685 81.0513 46.7884 82.0317 45.9524C83.0121 45.1165 87.1471 43.5925 89.8476 43.7404C92.5481 43.8884 96.4354 44.8722 96.4354 44.8722C96.4354 44.8722 93.2395 43.3001 93.0916 37.1045C93.0007 33.4019 93.3811 29.7028 94.2234 26.0962C94.2234 26.0962 92.9471 27.2761 90.5872 29.44C88.2273 31.6038 88.3752 32.1439 86.5073 32.1439C84.6393 32.1439 82.9674 32.536 82.3792 34.06C81.7909 35.584 81.1029 36.4681 79.6787 36.4199C78.2545 36.3718 77.8107 35.436 76.4312 36.4681C75.0518 37.5001 74.9554 38.2913 74.9554 38.2913Z" fill="#5667FD" stroke="#263238" stroke-width="0.75" stroke-linecap="round" stroke-linejoin="round"/>
<path d="M74.9555 38.2915C74.9555 38.2915 73.0875 42.3715 73.5795 48.6118C74.0714 54.8521 77.0196 62.1279 81.0514 66.7996C85.0832 71.4712 87.6357 78.8915 87.6357 78.8915" stroke="#263238" stroke-width="0.75" stroke-linecap="round" stroke-linejoin="round"/>
<path d="M78.7775 51.1194C78.7775 51.1194 80.1053 56.6751 83.8413 61.2952C87.5772 65.9152 93.5733 67.0952 93.5733 67.0952" stroke="#263238" stroke-width="0.75" stroke-linecap="round" stroke-linejoin="round"/>
<path d="M77.7454 44.7318C77.7454 44.7318 77.1571 46.5516 78.5332 49.4998C79.9092 52.4479 80.2532 52.8436 80.2532 52.8436" stroke="#263238" stroke-width="0.75" stroke-linecap="round" stroke-linejoin="round"/>
<path d="M81.8359 46.0081C80.9659 46.7853 80.2495 47.7188 79.7236 48.7601" stroke="#263238" stroke-width="0.75" stroke-linecap="round" stroke-linejoin="round"/>
<path d="M89.8378 43.7475C90.3435 43.7751 90.8905 43.8335 91.4443 43.9058C90.9972 43.7213 90.6027 43.4291 90.296 43.0551C89.9893 42.6812 89.7799 42.2371 89.6864 41.7626C89.1842 39.8465 90.7391 34.5384 91.4065 32.2817C91.8132 30.8927 92.0579 29.4613 92.1358 28.016L90.6909 29.3439C90.5743 30.2128 90.3926 31.0718 90.1474 31.9136C88.9399 36.0245 87.8976 40.1045 88.4274 42.0963C88.5751 42.6883 88.8305 43.248 89.1807 43.7475C89.4043 43.7372 89.6245 43.7372 89.8378 43.7475Z" fill="#263238"/>
<path d="M66.3556 38.3918C66.3556 38.3918 66.8475 36.8162 65.8637 36.0319C64.8798 35.2475 63.8512 36.4241 63.8512 36.4241C62.9675 35.8902 62.265 35.1027 61.8353 34.1639C60.9994 32.492 61.9832 31.4118 60.0637 29.0038C58.1441 26.5957 56.9194 25.8595 57.4113 23.5994C57.9033 21.3392 59.9673 19.6674 58.4915 18.6835C57.0157 17.6996 53.4277 17.7478 50.7754 20.7475C48.1231 23.7473 48.4155 25.4157 47.3835 26.5475C46.3514 27.6793 44.0879 29.1035 45.4639 31.3155C46.8399 33.5275 49.1517 34.3634 51.3121 34.7074C53.4724 35.0515 56.572 37.6556 57.26 40.5556C57.948 43.4556 57.0639 46.8475 55.736 49.6031C54.4081 52.3586 50.6722 55.9913 49.5439 61.5952C48.4155 67.1991 51.9519 70.0991 52.5918 72.3111C53.2316 74.5231 54.1157 80.1752 53.0837 83.371C52.4462 85.2989 51.1079 86.917 49.334 87.9051C49.334 87.9051 50.7616 90.0173 54.2981 90.4094C57.8345 90.8016 58.5259 90.4094 58.8218 88.8855C59.1176 87.3615 59.4616 82.2495 58.2817 76.7936C57.1017 71.3376 54.5457 68.8813 56.2176 64.0652C57.8895 59.2491 59.4616 53.4456 61.278 49.2178C63.0944 44.9899 66.3556 38.3918 66.3556 38.3918Z" fill="#5667FD" stroke="#263238" stroke-width="0.75" stroke-linecap="round" stroke-linejoin="round"/>
<path d="M59.2139 35.9796C59.2139 35.9796 60.1977 36.0794 59.6576 38.5872C59.1175 41.095 57.2496 45.6153 57.2496 45.6153" stroke="#263238" stroke-width="0.75" stroke-linecap="round" stroke-linejoin="round"/>
<path d="M52.4817 71.8634C52.4817 71.8634 51.4497 70.1434 51.9898 65.8192C52.5299 61.495 54.6593 55.8911 56.3793 50.9236C58.0994 45.9561 58.8837 44.0916 58.8837 44.0916" stroke="#263238" stroke-width="0.75" stroke-linecap="round" stroke-linejoin="round"/>
<path d="M64.0812 36.8671C64.0812 36.8671 64.0812 37.7993 61.7694 42.5673C59.4577 47.3353 58.2812 51.2673 58.233 54.071" stroke="#263238" stroke-width="0.75" stroke-linecap="round" stroke-linejoin="round"/>
<path d="M49.7913 28.6588C50.2041 28.3147 50.6307 27.9707 51.016 27.6095C52.1202 26.5775 52.5606 25.3769 52.9493 24.3346C53.2933 23.4298 53.5754 22.6455 54.2462 22.157C55.0512 21.5618 56.6302 22.1914 57.6554 22.7487C57.8169 22.3399 58.003 21.9413 58.2127 21.555C56.9949 20.8945 54.8964 20.0482 53.4688 21.1009C52.4849 21.8233 52.0927 22.8656 51.7178 23.877C51.3737 24.8299 50.9953 25.8172 50.1112 26.6566C49.7672 27.0006 49.3716 27.3068 48.9622 27.6439C47.7479 28.6381 46.334 29.8009 45.7045 31.686C46.0097 32.1096 46.3668 32.4933 46.7675 32.8282C47.0908 30.8776 48.4118 29.7906 49.7913 28.6588Z" fill="#263238"/>
</g>
<defs>
<filter id="filter0_d_2_6906" x="-6.10352e-05" y="0" width="143.381" height="116.028" filterUnits="userSpaceOnUse" color-interpolation-filters="sRGB">
<feFlood flood-opacity="0" result="BackgroundImageFix"/>
<feColorMatrix in="SourceAlpha" type="matrix" values="0 0 0 0 0 0 0 0 0 0 0 0 0 0 0 0 0 0 127 0" result="hardAlpha"/>
<feOffset dy="4"/>
<feGaussianBlur stdDeviation="2"/>
<feComposite in2="hardAlpha" operator="out"/>
<feColorMatrix type="matrix" values="0 0 0 0 0 0 0 0 0 0 0 0 0 0 0 0 0 0 0.25 0"/>
<feBlend mode="normal" in2="BackgroundImageFix" result="effect1_dropShadow_2_6906"/>
<feBlend mode="normal" in="SourceGraphic" in2="effect1_dropShadow_2_6906" result="shape"/>
</filter>
</defs>
</svg>
